<svg id="Capa_1" enable-background="new 0 0 504.5 504.5" height="512" viewBox="0 0 504.5 504.5" width="512" xmlns="http://www.w3.org/2000/svg"><g><g><path d="m495.75 474.5c2.761 0 5 2.239 5 5v10l-1 9c0 2.761-2.239 5-5 5h-485c-2.761 0-5-2.239-5-5v-18c0-2.761 2.239-5 5-5l9-1z" fill="#f8f7f7"/><path d="m23.75 489.5c-2.761 0-5-2.239-5-5v-10h-10c-2.761 0-5 2.239-5 5v20c0 2.761 2.239 5 5 5h487c2.761 0 5-2.239 5-5v-10z" fill="#e8e8e8"/></g><g><g fill="#b3e59f"><path d="m474.75 438.5c0 2.761-2.239 5-5 5h-38c-2.761 0-5-2.239-5-5v-158c0-2.761 2.239-5 5-5l9-1h30c2.761 0 5 2.239 5 5v150z"/><path d="m469.75 182.683h-38c-2.761 0-5-2.239-5-5v-18c0-2.761 2.239-5 5-5l9-1h30c2.761 0 5 2.239 5 5v10l-1 9c0 2.762-2.239 5-5 5z"/><path d="m469.75 242.5h-38c-2.761 0-5-2.239-5-5v-18c0-2.761 2.239-5 5-5l9-1h30c2.761 0 5 2.239 5 5v10l-1 9c0 2.761-2.239 5-5 5z"/></g><path d="m379.75 443.5h-38c-2.761 0-5-2.239-5-5v-169c0-2.761 2.239-5 5-5l9-1h30c2.761 0 5 2.239 5 5v161l-1 9c0 2.761-2.239 5-5 5z" fill="#ccf49f"/><path d="m289.75 443.5h-38c-2.761 0-5-2.239-5-5v-85c0-2.761 2.239-5 5-5l9-1h30c2.761 0 5 2.239 5 5v77l-1 9c0 2.761-2.239 5-5 5z" fill="#ffd163"/><path d="m199.75 443.5h-38c-2.761 0-5-2.239-5-5v-59c0-2.761 2.239-5 5-5l9-1h30c2.761 0 5 2.239 5 5v51l-1 9c0 2.761-2.239 5-5 5z" fill="#ffb65f"/><path d="m109.75 443.5h-38c-2.761 0-5-2.239-5-5v-39c0-2.761 2.239-5 5-5l9-1h30c2.761 0 5 2.239 5 5v31l-1 9c0 2.761-2.239 5-5 5z" fill="#df646e"/><path d="m445.75 429.5c-2.761 0-5-2.239-5-5v-150h-10c-2.761 0-5 2.239-5 5v160c0 2.761 2.239 5 5 5h40c2.761 0 5-2.239 5-5v-10z" fill="#95d6a4"/><path d="m445.75 168.683c-2.761 0-5-2.239-5-5v-10h-10c-2.761 0-5 2.239-5 5v20c0 2.761 2.239 5 5 5h40c2.761 0 5-2.239 5-5v-10z" fill="#95d6a4"/><path d="m445.75 228.5c-2.761 0-5-2.239-5-5v-10h-10c-2.761 0-5 2.239-5 5v20c0 2.761 2.239 5 5 5h40c2.761 0 5-2.239 5-5v-10z" fill="#95d6a4"/><path d="m355.75 429.5c-2.761 0-5-2.239-5-5v-161h-10c-2.761 0-5 2.239-5 5v171c0 2.761 2.239 5 5 5h40c2.761 0 5-2.239 5-5v-10z" fill="#b3e59f"/><path d="m265.75 429.5c-2.761 0-5-2.239-5-5v-77h-10c-2.761 0-5 2.239-5 5v87c0 2.761 2.239 5 5 5h40c2.761 0 5-2.239 5-5v-10z" fill="#ffb65f"/><path d="m175.75 429.5c-2.761 0-5-2.239-5-5v-51h-10c-2.761 0-5 2.239-5 5v61c0 2.761 2.239 5 5 5h40c2.761 0 5-2.239 5-5v-10z" fill="#ff9350"/><path d="m85.75 429.5c-2.761 0-5-2.239-5-5v-31h-10c-2.761 0-5 2.239-5 5v41c0 2.761 2.239 5 5 5h40c2.761 0 5-2.239 5-5v-10z" fill="#dc4955"/><path d="m443.09 44.497-37.528 65c-3.849 6.667.962 13 8.66 13h73.056c7.698 0 12.509-7.333 8.66-14l.423-1-35.23-61.019-2.721-1.981c-3.849-6.666-11.471-6.666-15.32 0z" fill="#b3e59f"/><path d="m496.361 107.497h-65.263c-2.309 0-3.753-2.5-2.598-4.5l32.631-56.519-1.721-2.981c-3.849-6.667-13.472-6.667-17.321 0l-37.528 65c-3.849 6.667.962 15 8.66 15h75.055c7.698 0 12.509-8.333 8.661-15z" fill="#95d6a4"/></g><path d="m321.827 182.051c8.373-7.901 8.373-21.201 0-29.102-26.993-25.469-88.508-75.449-155.577-75.449-20.712 0-40.673 5.904-59.166 13.243-41.392 16.426-75.433 44.602-94.091 62.206-8.373 7.901-8.373 21.201 0 29.102 12.598 11.887 31.124 28.012 55.817 43.004 28.214 17.13 61.674 32.445 97.44 32.445 67.069 0 128.584-49.98 155.577-75.449z" fill="#f8f7f7"/><path d="m25.67 182.05c25.99 24.52 83.96 71.74 148.08 75.24-2.49.14-4.99.21-7.5.21-67.07 0-128.58-49.98-155.58-75.45-8.37-7.9-8.37-21.2 0-29.1 27-25.47 88.51-75.45 155.58-75.45 2.51 0 5.01.07 7.5.21-64.12 3.5-122.09 50.72-148.08 75.24-8.37 7.9-8.37 21.2 0 29.1z" fill="#e8e8e8"/><path d="m256.25 167.5c0-47.256-36.421-86.006-82.725-89.71-2.4-.192-4.826.348-7.275.348-49.706 0-87.862 39.781-87.862 89.487s38.157 89.057 87.862 89.057c2.277 0 4.535.734 6.77.568 46.543-3.462 83.23-42.322 83.23-89.75z" fill="#bae6ef"/><path d="m174.25 257.15c-2.63.23-5.3.35-8 .35-49.71 0-90-40.29-90-90s40.29-90 90-90c2.7 0 5.37.12 8 .35-45.96 4.05-82 42.64-82 89.65s36.04 85.6 82 89.65z" fill="#94d8e6"/><path d="m198.93 161.72c-14.316-.962-25.935-12.579-26.9-26.894-.364-5.409.761-10.525 3.003-14.983 1.292-2.567.049-5.539-2.37-6.68-.522-.246-1.236-.018-1.854-.071-1.548-.134-2.977.165-4.56.165-31.237 0-53.865 25.416-52.413 56.972 1.296 28.177 21.654 50.461 49.83 51.757 3.44.158 6.8.454 10.083.007 26.827-3.658 47.5-26.661 47.5-54.493 0-1.583-.069-3.15-.203-4.698-.301-3.481-4.019-5.655-7.14-4.085-4.455 2.241-9.569 3.366-14.976 3.003z" fill="#8e868e"/><path d="m173.75 221.99c-3.29.45-6.66.61-10.1.45-28.17-1.3-51.04-24.17-52.34-52.34-1.45-31.56 23.7-57.6 54.94-57.6 1.58 0 3.15.07 4.7.2.62.05 1.19.21 1.71.47-27.12 4.25-47.66 28.32-46.35 56.93 1.22 26.52 21.56 48.33 47.44 51.89z" fill="#766d78"/><g><g><path d="m166.25 55c-4.142 0-7.5-3.357-7.5-7.5v-40c0-4.143 3.358-7.5 7.5-7.5s7.5 3.357 7.5 7.5v40c0 4.143-3.358 7.5-7.5 7.5z" fill="#f8f7f7"/></g><g><path d="m166.25 335c-4.142 0-7.5-3.357-7.5-7.5v-40c0-4.143 3.358-7.5 7.5-7.5s7.5 3.357 7.5 7.5v40c0 4.143-3.358 7.5-7.5 7.5z" fill="#f8f7f7"/></g><g><path d="m115.541 66.245c-2.825 0-5.53-1.604-6.802-4.332l-16.905-36.253c-1.75-3.754-.126-8.217 3.628-9.967 3.752-1.753 8.216-.127 9.967 3.627l16.905 36.253c1.75 3.754.126 8.217-3.628 9.967-1.025.479-2.104.705-3.165.705z" fill="#f8f7f7"/></g><g><path d="m233.873 320.012c-2.825 0-5.53-1.604-6.802-4.332l-16.905-36.253c-1.75-3.754-.126-8.217 3.628-9.967 3.752-1.753 8.216-.127 9.967 3.627l16.905 36.253c1.75 3.754.126 8.217-3.628 9.967-1.025.478-2.104.705-3.165.705z" fill="#f8f7f7"/></g><g><path d="m216.959 66.245c-1.062 0-2.139-.227-3.165-.705-3.754-1.75-5.378-6.213-3.628-9.967l16.905-36.253c1.75-3.754 6.212-5.38 9.967-3.627 3.754 1.75 5.378 6.213 3.628 9.967l-16.905 36.253c-1.272 2.729-3.977 4.332-6.802 4.332z" fill="#f8f7f7"/></g><g><path d="m98.626 320.012c-1.062 0-2.139-.227-3.165-.705-3.754-1.75-5.378-6.213-3.628-9.967l16.905-36.253c1.751-3.754 6.213-5.379 9.967-3.627 3.754 1.75 5.378 6.213 3.628 9.967l-16.905 36.253c-1.272 2.728-3.977 4.332-6.802 4.332z" fill="#f8f7f7"/></g></g></g></svg>