<svg enable-background="new 0 0 256 256" height="512" viewBox="0 0 256 256" width="512" xmlns="http://www.w3.org/2000/svg"><path d="m245.1 71.47h-13.016l-48.554 84.098c-1.156 2.003-3.718 2.689-5.721 1.533l-12.318-7.112c-2.003-1.156-2.689-3.718-1.533-5.721l42.03-72.798h-195.088c-4.62 0-8.4 3.78-8.4 8.4v118.847c0 4.62 3.78 8.4 8.4 8.4h234.2c4.62 0 8.4-3.78 8.4-8.4v-118.848c0-4.619-3.78-8.399-8.4-8.399z" fill="#dae6f1"/><path d="m157.3 160.82-2.568 18.234c-.257 1.822 1.835 3.029 3.284 1.896l14.507-11.341z" fill="#f5c84c"/><path d="m177.809 157.1-12.318-7.112c-2.003-1.156-2.689-3.718-1.533-5.721l64.285-111.345c1.156-2.003 3.718-2.689 5.721-1.533l12.318 7.112c2.003 1.156 2.689 3.718 1.533 5.721l-64.285 111.345c-1.156 2.003-3.718 2.689-5.721 1.533z" fill="#5290db"/><path d="m246.786 23.404c-4.204-2.427-9.579-.987-12.006 3.217l-2.444 4.234c.558.062 1.112.235 1.629.534l12.318 7.112c.517.298.944.691 1.277 1.143l2.444-4.234c2.427-4.203.986-9.578-3.218-12.006z" fill="#3a70bf"/><path d="m249.75 40.871-9.132 15.817 7.95 4.59 3.334-5.774c2.819-4.884 1.786-10.931-2.152-14.633z" fill="#3a70bf"/><path d="m177.809 157.1-12.318-7.112c-.517-.299-.944-.692-1.277-1.144l-6.914 11.976 15.224 8.789 6.914-11.976c-.558-.061-1.112-.235-1.629-.533z" fill="#f5c84c"/><circle cx="56.335" cy="138.118" fill="#fcdd86" r="38.017"/><circle cx="56.335" cy="138.118" fill="#f5c84c" r="28.533"/><path d="m195.075 39.545h-2.07v-2.07c0-1.549-1.256-2.805-2.805-2.805s-2.805 1.256-2.805 2.805v2.07h-2.069c-1.549 0-2.805 1.256-2.805 2.805s1.256 2.805 2.805 2.805h2.069v2.07c0 1.549 1.256 2.805 2.805 2.805s2.805-1.256 2.805-2.805v-2.07h2.07c1.549 0 2.805-1.256 2.805-2.805s-1.256-2.805-2.805-2.805z" fill="#87d147"/><path d="m65.506 223.224c1.849.334 3.355-1.047 3.355-2.749 0-1.501-1.207-2.805-2.805-2.805-1.57 0-2.805 1.3-2.805 2.805.001 1.335.961 2.505 2.255 2.749z" fill="#3caadc"/><path d="m165.506 58.224c1.849.334 3.355-1.047 3.355-2.749 0-1.549-1.249-2.805-2.805-2.805-1.526 0-2.805 1.258-2.805 2.805.001 1.352.979 2.508 2.255 2.749z" fill="#f5c84c"/><path d="m82.943 228.384c3.995.744 7.144 3.829 7.904 7.743.038.197.313.197.351 0 .76-3.914 3.908-6.999 7.904-7.743.201-.037.201-.306 0-.344-3.995-.744-7.144-3.829-7.904-7.743-.038-.197-.313-.197-.351 0-.76 3.914-3.908 6.999-7.904 7.743-.201.038-.201.307 0 .344z" fill="#ef4460"/><path d="m156.76 183.888c-.781 0-1.565-.202-2.276-.613-1.613-.932-2.487-2.726-2.228-4.57l2.568-18.233c.116-.823.633-1.534 1.38-1.898s1.626-.333 2.346.082l15.224 8.789c.72.416 1.186 1.161 1.244 1.99s-.299 1.633-.954 2.145l-14.507 11.341c-.822.641-1.807.967-2.797.967zm2.499-19.05-1.894 13.449 10.7-8.365z"/><path d="m179.892 160.16c-1.134 0-2.282-.288-3.332-.895l-12.318-7.112c-3.194-1.845-4.292-5.943-2.448-9.136l64.285-111.345c.893-1.547 2.335-2.654 4.061-3.116 1.725-.463 3.526-.226 5.075.668l12.318 7.112c3.193 1.844 4.292 5.942 2.448 9.136l-64.286 111.345c-1.237 2.143-3.49 3.343-5.803 3.343zm-.833-5.225c.391.225.846.286 1.281.168.436-.117.799-.396 1.025-.786l64.285-111.345c.465-.806.188-1.84-.619-2.306l-12.317-7.112c-.39-.225-.844-.286-1.281-.168-.436.117-.799.396-1.025.786l-64.285 111.346c-.226.391-.286.845-.169 1.281s.396.799.787 1.025z"/><path d="m247.559 42.145c-.792 0-1.54-.376-2.013-1.018-.139-.189-.312-.345-.515-.461l-12.317-7.111c-.201-.116-.421-.188-.655-.214-.839-.093-1.574-.604-1.955-1.356-.381-.753-.356-1.647.066-2.378l2.444-4.234c3.113-5.391 10.03-7.244 15.421-4.132 2.612 1.508 4.479 3.942 5.26 6.855.78 2.913.38 5.955-1.128 8.566l-2.444 4.234c-.422.73-1.184 1.199-2.026 1.246-.046.001-.092.003-.138.003zm-11.632-12.51 10.893 6.29 1.019-1.764c.84-1.455 1.063-3.149.628-4.772s-1.476-2.979-2.931-3.819c-3.005-1.734-6.858-.702-8.591 2.302z"/><path d="m228.93 97.788c-.424 0-.854-.108-1.248-.335l-2.03-1.172c-1.196-.69-1.605-2.219-.915-3.415.664-1.149 2.104-1.573 3.277-.989l21.722-37.623c1.257-2.178 1.591-4.715.94-7.145s-2.209-4.459-4.387-5.717l-15.029-8.677c-1.196-.69-1.605-2.219-.915-3.415.689-1.196 2.218-1.607 3.415-.915l15.029 8.677c3.334 1.925 5.72 5.034 6.716 8.753s.485 7.604-1.44 10.938l-22.969 39.784c-.461.802-1.302 1.251-2.166 1.251z"/><path d="m248.565 63.778c-.424 0-.854-.108-1.248-.335l-7.95-4.59c-.574-.332-.993-.877-1.165-1.518-.171-.64-.082-1.323.25-1.897l9.132-15.816c.382-.661 1.045-1.112 1.8-1.223.756-.114 1.52.129 2.077.651 4.896 4.601 5.967 11.881 2.605 17.704l-3.334 5.774c-.462.802-1.302 1.25-2.167 1.25zm-4.532-8.005 3.62 2.09 2.084-3.609c1.618-2.802 1.664-6.121.297-8.875z"/><path d="m172.521 172.11c-.424 0-.854-.108-1.248-.335l-15.224-8.789c-.574-.332-.993-.877-1.165-1.518-.171-.64-.082-1.323.25-1.897l6.914-11.976c.422-.731 1.184-1.199 2.026-1.246.84-.039 1.651.335 2.152 1.014.139.189.312.345.515.461l12.316 7.111c.202.116.422.188.656.214.839.093 1.574.604 1.955 1.356.381.753.356 1.647-.066 2.378l-6.914 11.976c-.462.802-1.302 1.251-2.167 1.251zm-11.806-12.205 10.894 6.289 4.238-7.34-10.893-6.29z"/><path d="m146.825 184.849c-3.684 0-5.461-2.708-6.759-4.685-1.215-1.851-1.729-2.428-2.579-2.428s-1.364.577-2.579 2.428c-1.297 1.977-3.075 4.684-6.758 4.684s-5.459-2.708-6.756-4.685c-1.214-1.851-1.728-2.427-2.575-2.427-.848 0-1.362.577-2.577 2.428-1.297 1.977-3.074 4.685-6.757 4.685-1.381 0-2.5-1.119-2.5-2.5s1.119-2.5 2.5-2.5c.848 0 1.362-.577 2.577-2.428 1.297-1.977 3.074-4.685 6.757-4.685s5.459 2.708 6.756 4.685c1.214 1.852 1.728 2.428 2.576 2.428.849 0 1.363-.577 2.579-2.428 1.297-1.977 3.075-4.685 6.759-4.685s5.461 2.708 6.758 4.684c1.215 1.852 1.73 2.428 2.579 2.428 1.381 0 2.5 1.119 2.5 2.5s-1.12 2.501-2.501 2.501z"/><path d="m245.1 209.616h-234.2c-6.01 0-10.9-4.89-10.9-10.9v-118.846c0-6.01 4.89-10.9 10.9-10.9h195.088c.893 0 1.718.477 2.165 1.25s.447 1.727 0 2.5l-42.03 72.798c-.226.391-.286.845-.169 1.281s.396.799.787 1.025l12.318 7.112c.804.463 1.839.188 2.306-.619l48.554-84.097c.447-.773 1.272-1.25 2.165-1.25h13.016c6.01 0 10.9 4.89 10.9 10.9v118.847c0 6.01-4.89 10.899-10.9 10.899zm-234.2-135.646c-3.253 0-5.9 2.646-5.9 5.9v118.847c0 3.253 2.646 5.9 5.9 5.9h234.2c3.253 0 5.9-2.646 5.9-5.9v-118.847c0-3.253-2.646-5.9-5.9-5.9h-11.573l-47.832 82.847c-1.845 3.193-5.942 4.292-9.136 2.448l-12.318-7.112c-3.194-1.845-4.292-5.943-2.448-9.136l39.865-69.047z"/><path d="m172.887 103.508h-64.151c-1.381 0-2.5-1.119-2.5-2.5s1.119-2.5 2.5-2.5h64.151c1.381 0 2.5 1.119 2.5 2.5s-1.119 2.5-2.5 2.5z"/><path d="m165.252 117.901h-56.517c-1.381 0-2.5-1.119-2.5-2.5s1.119-2.5 2.5-2.5h56.517c1.381 0 2.5 1.119 2.5 2.5s-1.119 2.5-2.5 2.5z"/><path d="m158.344 132.293h-49.609c-1.381 0-2.5-1.119-2.5-2.5s1.119-2.5 2.5-2.5h49.609c1.381 0 2.5 1.119 2.5 2.5s-1.119 2.5-2.5 2.5z"/><path d="m150.025 146.685h-41.29c-1.381 0-2.5-1.119-2.5-2.5s1.119-2.5 2.5-2.5h41.29c1.381 0 2.5 1.119 2.5 2.5s-1.119 2.5-2.5 2.5z"/><path d="m146.1 161.078h-37.365c-1.381 0-2.5-1.119-2.5-2.5s1.119-2.5 2.5-2.5h37.365c1.381 0 2.5 1.119 2.5 2.5s-1.119 2.5-2.5 2.5z"/><path d="m226.887 161.078h-28.151c-1.381 0-2.5-1.119-2.5-2.5s1.119-2.5 2.5-2.5h28.151c1.381 0 2.5 1.119 2.5 2.5s-1.119 2.5-2.5 2.5z"/><path d="m226.887 146.685h-20.517c-1.381 0-2.5-1.119-2.5-2.5s1.119-2.5 2.5-2.5h20.517c1.381 0 2.5 1.119 2.5 2.5s-1.119 2.5-2.5 2.5z"/><path d="m226.887 132.293h-13.609c-1.381 0-2.5-1.119-2.5-2.5s1.119-2.5 2.5-2.5h13.609c1.381 0 2.5 1.119 2.5 2.5s-1.119 2.5-2.5 2.5z"/><path d="m226.887 117.901h-5.291c-1.381 0-2.5-1.119-2.5-2.5s1.119-2.5 2.5-2.5h5.291c1.381 0 2.5 1.119 2.5 2.5s-1.119 2.5-2.5 2.5z"/><path d="m59.961 153.714h-10.278c-1.381 0-2.5-1.119-2.5-2.5s1.119-2.5 2.5-2.5h10.278c2.232 0 4.048-1.816 4.048-4.048s-1.816-4.048-4.048-4.048h-7.252c-4.989 0-9.047-4.059-9.047-9.048s4.059-9.047 9.047-9.047h11.599c1.381 0 2.5 1.119 2.5 2.5s-1.119 2.5-2.5 2.5h-11.6c-2.232 0-4.047 1.815-4.047 4.047s1.815 4.048 4.047 4.048h7.252c4.989 0 9.048 4.059 9.048 9.048s-4.058 9.048-9.047 9.048z"/><path d="m56.335 158.193c-1.381 0-2.5-1.119-2.5-2.5v-35.15c0-1.381 1.119-2.5 2.5-2.5s2.5 1.119 2.5 2.5v35.15c0 1.381-1.119 2.5-2.5 2.5z"/><path d="m56.335 169.151c-17.111 0-31.033-13.921-31.033-31.033s13.921-31.033 31.033-31.033 31.033 13.921 31.033 31.033-13.922 31.033-31.033 31.033zm0-57.066c-14.354 0-26.033 11.678-26.033 26.033s11.678 26.033 26.033 26.033 26.033-11.678 26.033-26.033-11.679-26.033-26.033-26.033z"/><path d="m56.335 178.636c-22.341 0-40.518-18.176-40.518-40.518s18.176-40.518 40.518-40.518 40.518 18.176 40.518 40.518-18.177 40.518-40.518 40.518zm0-76.035c-19.584 0-35.518 15.933-35.518 35.518s15.933 35.518 35.518 35.518 35.518-15.933 35.518-35.518-15.934-35.518-35.518-35.518z"/></svg>