<svg height="512" viewBox="0 0 256 256" width="512" xmlns="http://www.w3.org/2000/svg"><rect fill="#63bce7" height="154.91" rx="14.009" width="224.78" x="15.61" y="37.313"/><path d="m25.11 178.214v-126.892a14.025 14.025 0 0 1 14.009-14.009h-9.5a14.025 14.025 0 0 0 -14.009 14.009v126.892a14.025 14.025 0 0 0 14.009 14.009h9.5a14.025 14.025 0 0 1 -14.009-14.009z" fill="#6377e7"/><path d="m230.89 178.214v-126.892a14.025 14.025 0 0 0 -14.009-14.009h9.5a14.025 14.025 0 0 1 14.009 14.009v126.892a14.025 14.025 0 0 1 -14.009 14.009h-9.5a14.025 14.025 0 0 0 14.009-14.009z" fill="#63e2e7"/><rect fill="#f8af23" height="125.366" rx="5.388" width="207.538" x="24.231" y="45.933"/><path d="m33.731 165.912v-114.591a5.4 5.4 0 0 1 5.388-5.388h-9.5a5.4 5.4 0 0 0 -5.388 5.388v114.59a5.4 5.4 0 0 0 5.388 5.388h9.5a5.4 5.4 0 0 1 -5.388-5.387z" fill="#f87023"/><path d="m222.269 165.912v-114.591a5.4 5.4 0 0 0 -5.388-5.388h9.5a5.4 5.4 0 0 1 5.388 5.388v114.59a5.4 5.4 0 0 1 -5.388 5.388h-9.5a5.4 5.4 0 0 0 5.388-5.387z" fill="#f8d323"/><path d="m88.847 214.938h78.305v9.429h-78.305z" fill="#f46275"/><path d="m88.847 214.938h9.5v9.429h-9.5z" fill="#f43075"/><path d="m99.983 192.222h56.035v22.716h-56.035z" fill="#9e9e9e"/><path d="m99.983 192.222h9.5v22.716h-9.5z" fill="#707070"/><circle cx="128" cy="181.761" fill="#f46275" r="4.613"/><circle cx="128" cy="55.285" fill="#9e9e9e" r="34.625"/><path d="m119.95 89.91h16.1a41.5 41.5 0 0 1 41.5 41.5v39.89a0 0 0 0 1 0 0h-99.1a0 0 0 0 1 0 0v-39.89a41.5 41.5 0 0 1 41.5-41.5z" fill="#f46275"/><path d="m42.533 84.163 19.8 19.8 19.8-19.8h-8.709v-21.709h-22.181v21.709z" fill="#63bce7"/><path d="m173.867 84.163 19.8 19.8 19.8-19.8h-8.71v-21.709h-22.181v21.709z" fill="#63bce7"/><g fill="#3f3679"><path d="m128 187.874a6.113 6.113 0 1 0 -6.113-6.113 6.12 6.12 0 0 0 6.113 6.113zm0-9.227a3.113 3.113 0 1 1 -3.113 3.113 3.117 3.117 0 0 1 3.113-3.113z"/><path d="m27.323 233.84h-18a1.5 1.5 0 1 0 0 3h18a1.5 1.5 0 1 0 0-3z"/><path d="m246.68 233.84h-18a1.5 1.5 0 0 0 0 3h18a1.5 1.5 0 0 0 0-3z"/><path d="m218.479 233.84h-180.958a1.5 1.5 0 0 0 0 3h180.958a1.5 1.5 0 0 0 0-3z"/><path d="m9.32 225.867h237.36a1.5 1.5 0 0 0 0-3h-78.028v-7.929a1.5 1.5 0 0 0 -1.5-1.5h-9.635v-19.715h68.863a15.526 15.526 0 0 0 15.509-15.509v-126.893a15.526 15.526 0 0 0 -15.509-15.509h-67.98a36.081 36.081 0 0 0 -60.807 0h-67.974a15.526 15.526 0 0 0 -15.509 15.509v126.893a15.526 15.526 0 0 0 15.508 15.509h68.864v19.716h-9.635a1.5 1.5 0 0 0 -1.5 1.5v7.929h-78.027a1.5 1.5 0 1 0 0 3zm118.68-203.707a33.125 33.125 0 1 1 -33.125 33.125 33.162 33.162 0 0 1 33.125-33.125zm-98.381 147.64a3.892 3.892 0 0 1 -3.888-3.888v-114.591a3.892 3.892 0 0 1 3.888-3.888h63.125a36.079 36.079 0 0 0 21.726 41.338 43.055 43.055 0 0 0 -37.52 42.639v38.39zm50.331-38.39a40.046 40.046 0 0 1 40-40h16.1a40.046 40.046 0 0 1 40 40v38.39h-96.1zm61.58-42.639a36.079 36.079 0 0 0 21.726-41.338h63.125a3.892 3.892 0 0 1 3.888 3.888v114.591a3.892 3.892 0 0 1 -3.888 3.888h-47.331v-38.39a43.055 43.055 0 0 0 -37.52-42.639zm-124.42 89.443v-126.893a12.523 12.523 0 0 1 12.509-12.508h66.247a35.884 35.884 0 0 0 -2.323 5.621h-63.924a6.9 6.9 0 0 0 -6.888 6.888v114.59a6.9 6.9 0 0 0 6.888 6.888h196.762a6.9 6.9 0 0 0 6.888-6.888v-114.591a6.9 6.9 0 0 0 -6.888-6.888h-63.924a35.878 35.878 0 0 0 -2.323-5.621h66.247a12.523 12.523 0 0 1 12.509 12.509v126.893a12.523 12.523 0 0 1 -12.509 12.509h-196.762a12.523 12.523 0 0 1 -12.509-12.509zm84.372 15.509h53.035v19.716h-53.035zm-11.135 22.715h75.305v6.429h-75.305z"/><path d="m83.519 83.589a1.5 1.5 0 0 0 -1.386-.926h-7.209v-20.209a1.5 1.5 0 0 0 -1.5-1.5h-22.181a1.5 1.5 0 0 0 -1.5 1.5v20.209h-7.21a1.5 1.5 0 0 0 -1.061 2.561l19.8 19.8a1.5 1.5 0 0 0 2.121 0l19.8-19.8a1.5 1.5 0 0 0 .326-1.635zm-21.186 18.253-16.178-16.179h5.088a1.5 1.5 0 0 0 1.5-1.5v-20.209h19.181v20.209a1.5 1.5 0 0 0 1.5 1.5h5.088z"/><path d="m193.667 105.463a1.5 1.5 0 0 0 1.061-.439l19.8-19.8a1.5 1.5 0 0 0 -1.061-2.561h-7.21v-20.209a1.5 1.5 0 0 0 -1.5-1.5h-22.181a1.5 1.5 0 0 0 -1.5 1.5v20.209h-7.21a1.5 1.5 0 0 0 -1.061 2.561l19.8 19.8a1.5 1.5 0 0 0 1.062.439zm-11.091-19.8a1.5 1.5 0 0 0 1.5-1.5v-20.209h19.181v20.209a1.5 1.5 0 0 0 1.5 1.5h5.089l-16.179 16.179-16.18-16.179z"/></g></svg>