<svg height="512" viewBox="0 0 256 256" width="512" xmlns="http://www.w3.org/2000/svg"><rect fill="#9e9e9e" height="20.833" rx="10.417" width="140.343" x="21.084" y="8.825"/><path d="m36.584 19.241a10.447 10.447 0 0 1 10.416-10.417h-15.5a10.417 10.417 0 0 0 0 20.833h15.5a10.447 10.447 0 0 1 -10.416-10.416z" fill="#707070"/><path d="m145.927 19.241a10.447 10.447 0 0 0 -10.417-10.417h15.5a10.417 10.417 0 0 1 0 20.833h-15.5a10.447 10.447 0 0 0 10.417-10.416z" fill="#cecece"/><path d="m46.07 19.241h90.371v151.084h-90.371z" fill="#63bce7"/><path d="m46.07 19.241h15.5v151.084h-15.5z" fill="#6377e7"/><path d="m120.941 19.241h15.5v151.084h-15.5z" fill="#63e2e7"/><path d="m122.883 147.363v-105.163a9.622 9.622 0 0 1 -9.622-9.622h-44.012a9.622 9.622 0 0 1 -9.621 9.622v105.16a9.622 9.622 0 0 1 9.622 9.622h44.012a9.622 9.622 0 0 1 9.621-9.619z" fill="#f46275"/><path d="m136.441 74.521v42.014l-8.27-9.7a9.639 9.639 0 0 0 -13.549-1.08 9.639 9.639 0 0 0 -1.08 13.549l18.813 22.071s-5.615 23.7 9.186 37.234h41.843l-3.709-50.9c-.445-4.7-3.344-8.678-6.292-11.967z" fill="#f8af23"/><path d="m179.674 127.7c-.445-4.7-3.344-8.678-6.292-11.967l-36.941-41.212v17.294l21.441 23.923c2.948 3.289 5.846 7.266 6.292 11.967l3.709 50.9h15.5z" fill="#f8d323"/><path d="m123.035 178.608h73.225v25.992h-73.225z" fill="#9e9e9e"/><path d="m180.76 178.608h15.5v25.992h-15.5z" fill="#cecece"/><path d="m127.374 204.6h64.547v31.603h-64.547z" fill="#63bce7"/><path d="m176.421 204.6h15.5v31.603h-15.5z" fill="#63e2e7"/><circle cx="91.256" cy="94.783" fill="#f8af23" r="22.492"/><path d="m100.781 94.772v6.538a1.794 1.794 0 0 1 -.573 1.325 1.876 1.876 0 0 1 -1.359.562h-5.749v4.603a1.8 1.8 0 0 1 -.561 1.337 1.831 1.831 0 0 1 -1.326.55 1.883 1.883 0 0 1 -1.37-.55 1.8 1.8 0 0 1 -.562-1.337v-4.65h-5.709a1.829 1.829 0 0 1 -1.325-.55 1.8 1.8 0 0 1 -.562-1.337 1.879 1.879 0 0 1 1.887-1.887h13.345v-2.717h-13.3a1.839 1.839 0 0 1 -1.336-.539 1.807 1.807 0 0 1 -.551-1.348v-6.515a1.88 1.88 0 0 1 1.887-1.887h5.661v-4.606a1.864 1.864 0 0 1 1.955-1.887 1.8 1.8 0 0 1 1.314.55 1.821 1.821 0 0 1 .55 1.337v4.606h5.8a1.877 1.877 0 0 1 1.359.561 1.8 1.8 0 0 1 .573 1.326 1.957 1.957 0 0 1 -1.932 1.932h-13.348v2.7h13.3a1.877 1.877 0 0 1 1.359.562 1.8 1.8 0 0 1 .573 1.321z" fill="#3f3679"/><path d="m224.573 71.232v-60.892a1.516 1.516 0 0 0 -1.516-1.516h-40.6a1.516 1.516 0 0 0 -1.516 1.516v60.892a1.516 1.516 0 0 1 -1.516 1.516h-7.308a1.516 1.516 0 0 0 -1.072 2.587l30.637 30.637a1.516 1.516 0 0 0 2.144 0l30.637-30.637a1.516 1.516 0 0 0 -1.072-2.587h-7.308a1.516 1.516 0 0 1 -1.51-1.516z" fill="#f8af23"/><path d="m233.4 72.748h-7.308a1.516 1.516 0 0 1 -1.516-1.516v-60.892a1.516 1.516 0 0 0 -1.516-1.516h-15.5a1.516 1.516 0 0 1 1.516 1.516v60.892a1.516 1.516 0 0 0 1.516 1.516h7.308a1.516 1.516 0 0 1 1.072 2.587l-23.962 23.96 6.678 6.678a1.516 1.516 0 0 0 2.143 0l30.637-30.637a1.516 1.516 0 0 0 -1.068-2.588z" fill="#f8d323"/><g fill="#3f3679"><path d="m27.323 245.675h-18a1.5 1.5 0 1 0 0 3h18a1.5 1.5 0 0 0 0-3z"/><path d="m246.68 245.675h-18a1.5 1.5 0 0 0 0 3h18a1.5 1.5 0 0 0 0-3z"/><path d="m218.479 245.675h-180.958a1.5 1.5 0 0 0 0 3h180.958a1.5 1.5 0 0 0 0-3z"/><path d="m9.32 237.7h237.36a1.5 1.5 0 0 0 0-3h-53.259v-28.6h2.839a1.5 1.5 0 0 0 1.5-1.5v-25.993a1.5 1.5 0 0 0 -1.5-1.5h-11.481l-3.612-49.543c-.5-5.337-3.828-9.658-6.667-12.827l-36.559-40.79v-42.789h13.069a11.917 11.917 0 0 0 0-23.833h-119.51a11.917 11.917 0 0 0 0 23.833h13.07v139.167a1.5 1.5 0 0 0 1.5 1.5h88.336a30.732 30.732 0 0 0 3.617 5.282h-14.988a1.5 1.5 0 0 0 -1.5 1.5v25.993a1.5 1.5 0 0 0 1.5 1.5h2.839v28.6h-116.554a1.5 1.5 0 1 0 0 3zm22.18-209.542a8.917 8.917 0 0 1 0-17.833h119.51a8.917 8.917 0 0 1 0 17.833h-13.069v-7.417h9.172a1.5 1.5 0 0 0 0-3h-111.213a1.5 1.5 0 0 0 0 3h8.67v7.417zm16.07 140.667v-148.084h87.372v91.722l-5.629-6.6a10.989 10.989 0 0 0 -4.929-3.31v-60.353a1.5 1.5 0 0 0 -1.5-1.5 8.131 8.131 0 0 1 -8.122-8.122 1.5 1.5 0 0 0 -1.5-1.5h-44.012a1.5 1.5 0 0 0 -1.5 1.5 8.131 8.131 0 0 1 -8.122 8.122 1.5 1.5 0 0 0 -1.5 1.5v105.16a1.5 1.5 0 0 0 1.5 1.5 8.131 8.131 0 0 1 8.122 8.122 1.5 1.5 0 0 0 1.5 1.5h44.012a1.5 1.5 0 0 0 1.5-1.5 8.131 8.131 0 0 1 8.122-8.122 1.5 1.5 0 0 0 1.5-1.5v-13.03l6.352 7.452a54.708 54.708 0 0 0 -.836 13.218 41.816 41.816 0 0 0 3.065 13.824zm43.685-98.033a23.992 23.992 0 1 0 19.225 38.329 11.213 11.213 0 0 0 -.687 3.066 11.035 11.035 0 0 0 2.608 8.089l8.982 10.538v15.15a11.147 11.147 0 0 0 -9.521 9.521h-41.213a11.147 11.147 0 0 0 -9.521-9.521v-102.364a11.147 11.147 0 0 0 9.521-9.521h41.213a11.147 11.147 0 0 0 9.521 9.521v58.39a11.017 11.017 0 0 0 -7.734 2.62 11.167 11.167 0 0 0 -.966.942 23.975 23.975 0 0 0 -21.428-34.76zm20.992 23.992a20.992 20.992 0 1 1 -20.992-20.992 21.016 21.016 0 0 1 20.993 20.991zm20.653 60.124a50.946 50.946 0 0 1 .915-13.19 1.5 1.5 0 0 0 -.318-1.318l-18.813-22.07a8.111 8.111 0 0 1 12.346-10.523l8.27 9.7 15.7 18.424a1.5 1.5 0 0 0 2.283-1.946l-15.344-18v-37.543l34.324 38.3c2.532 2.826 5.493 6.642 5.912 11.075l3.593 49.293h-39.635c-5.559-5.31-8.664-12.772-9.233-22.202zm-8.366 40.3h40.731a1.5 1.5 0 0 0 0-3h-40.73v-12.1h70.225v22.992h-70.225zm4.339 10.892h61.547v28.6h-61.546z"/><path d="m174.687 195.208h8.7a1.5 1.5 0 0 0 0-3h-8.7a1.5 1.5 0 0 0 0 3z"/><path d="m200.628 107.034a3.02 3.02 0 0 0 4.265 0l30.636-30.634a3.016 3.016 0 0 0 -2.132-5.148h-7.309a.016.016 0 0 1 -.016-.016v-60.896a3.019 3.019 0 0 0 -3.016-3.016h-40.6a3.019 3.019 0 0 0 -3.016 3.016l-.016 60.908h-7.309a3.015 3.015 0 0 0 -2.125 5.152zm-21.2-32.786a3.019 3.019 0 0 0 3.016-3.016l.016-60.908 40.611.016v60.892a3.019 3.019 0 0 0 3.016 3.016l7.319.027-30.659 30.638-30.625-30.665z"/></g></svg>