<?xml version="1.0"?>
<svg xmlns="http://www.w3.org/2000/svg" id="Layer_1" data-name="Layer 1" viewBox="0 0 512 512" width="512" height="512"><title>Withdrwal</title><g id="_Group_" data-name=" Group "><polygon points="488.92 66.63 488.92 294.38 377 294.38 376.75 294.38 376.75 219.61 377.35 219.61 437.16 219.61 437.16 141.4 376.75 141.4 135.25 141.4 74.84 141.4 74.84 219.61 135.25 219.61 135.25 294.38 134.65 294.38 23.08 294.38 23.08 66.63 488.92 66.63" style="fill:#d4e1f4"/><polygon points="437.16 141.4 437.16 219.61 377.35 219.61 376.75 219.61 376.75 141.4 437.16 141.4" style="fill:#00efd1"/><path d="M376.75,391.89v53.48H321.46V431.78a39.882,39.882,0,0,1,39.88-39.89h15.41Z" style="fill:#00efd1"/><path d="M135.25,219.61V141.4h241.5V391.89H361.34a39.882,39.882,0,0,0-39.88,39.89v13.59H189.27V432.23a39.874,39.874,0,0,0-39.88-39.88H135.25V219.61Z" style="fill:#00acea"/><path d="M256,172.38a76.305,76.305,0,1,1-76.31,76.31A76.31,76.31,0,0,1,256,172.38Z" style="fill:#00efd1"/><path d="M189.27,444.92v.45H135.25V392.35h14.14a39.874,39.874,0,0,1,39.88,39.88Z" style="fill:#00efd1"/><rect x="74.84" y="141.4" width="60.41" height="78.21" style="fill:#00efd1"/><path d="M256,241.73a13.205,13.205,0,1,1,13.21-13.2,8,8,0,1,0,16,0A29.254,29.254,0,0,0,264,200.443V196a8,8,0,0,0-16,0v4.443a29.2,29.2,0,0,0,8,57.287,13.206,13.206,0,0,1,1.148,26.362,7.209,7.209,0,0,0-2.3,0A13.222,13.222,0,0,1,242.79,270.94a8,8,0,0,0-16,0A29.255,29.255,0,0,0,248,299.027V305a8,8,0,0,0,16,0v-5.973a29.207,29.207,0,0,0-8-57.3Z" style="fill:#00acea"/></g></svg>
